<?xml version="1.0" standalone="no"?>
<!DOCTYPE svg PUBLIC "-//W3C//DTD SVG 20010904//EN"
 "http://www.w3.org/TR/2001/REC-SVG-20010904/DTD/svg10.dtd">
<svg version="1.0" xmlns="http://www.w3.org/2000/svg"
 width="699.000000pt" height="699.000000pt" viewBox="0 0 699.000000 699.000000"
 preserveAspectRatio="xMidYMid meet">
<metadata>
Created by potrace 1.14, written by Peter Selinger 2001-2017
</metadata>
<g transform="translate(0.000000,699.000000) scale(0.100000,-0.100000)"
fill="#000000" stroke="none">
<path d="M0 3495 l0 -3495 3495 0 3495 0 0 3495 0 3495 -3495 0 -3495 0 0
-3495z m5598 1302 c39 -37 40 -46 7 -42 -14 1 -25 -2 -25 -7 0 -5 -4 -6 -10
-3 -14 9 -69 -22 -115 -65 -22 -20 -78 -72 -125 -115 -170 -156 -289 -290
-272 -307 13 -13 82 34 82 56 0 8 12 17 26 20 15 4 35 17 46 29 11 12 16 16
12 8 -5 -9 -3 -12 5 -7 6 4 9 11 7 15 -6 10 39 51 55 51 7 0 29 16 50 35 22
19 37 35 35 35 -3 0 7 12 22 28 16 16 30 23 34 17 4 -6 8 -2 8 8 0 20 16 23
24 5 3 -7 3 -2 0 11 -4 13 -2 21 3 18 10 -6 94 77 125 123 13 18 17 21 17 9 1
-9 -6 -19 -14 -23 -8 -3 -15 -14 -15 -24 0 -21 -33 -56 -43 -45 -4 3 -7 -1 -7
-9 0 -15 -161 -179 -230 -235 -19 -15 -56 -49 -82 -76 -25 -26 -50 -47 -55
-47 -5 0 -34 -24 -64 -52 -57 -54 -125 -112 -164 -138 -12 -8 -35 -24 -51 -34
-56 -38 -77 -62 -160 -186 -46 -69 -113 -168 -149 -220 -98 -143 -246 -391
-334 -560 -21 -41 -75 -144 -120 -229 -45 -84 -81 -155 -81 -156 0 -2 12 -5
28 -7 l27 -4 -25 -11 c-16 -8 -19 -12 -9 -12 9 -1 22 5 28 13 24 29 140 40
423 41 184 0 198 -1 225 -21 69 -51 31 -97 -117 -143 -200 -61 -321 -114 -302
-133 6 -6 86 -8 215 -6 167 2 202 1 184 -9 -19 -11 -17 -12 18 -7 44 6 59 14
29 14 -16 0 -16 2 -4 10 9 5 19 5 27 -2 9 -7 13 -7 13 2 0 9 4 9 13 2 7 -5 21
-6 32 -1 28 11 64 11 47 0 -11 -7 -11 -9 2 -14 10 -4 16 -1 16 8 0 8 5 15 10
15 6 0 10 -6 10 -12 0 -9 4 -8 11 2 8 11 12 12 16 3 7 -18 24 -16 38 4 13 17
14 17 33 0 17 -16 20 -16 25 -2 5 10 20 15 52 15 25 0 45 -4 45 -8 0 -8 96 -9
110 -2 3 1 8 2 13 1 4 0 7 3 7 9 0 5 4 10 10 10 5 0 7 -7 4 -15 -5 -13 -2 -14
20 -5 18 6 25 6 21 0 -8 -13 16 -13 48 -1 16 6 40 6 67 -1 31 -8 48 -8 60 0
17 10 30 7 30 -9 0 -3 -91 -10 -202 -13 -112 -4 -257 -11 -323 -17 -447 -36
-703 -46 -735 -29 -28 15 -42 45 -34 75 7 28 64 68 92 63 11 -2 27 3 36 11 10
8 33 15 52 15 23 1 34 6 34 16 0 13 1 13 10 0 5 -8 10 -10 10 -4 0 7 9 14 20
17 11 3 20 1 20 -4 0 -5 4 -9 10 -9 5 0 7 6 4 13 -3 10 21 24 80 46 94 35 108
46 74 57 -48 15 -540 -2 -656 -22 -28 -6 -36 -15 -69 -83 -59 -120 -116 -221
-126 -221 -17 0 3 102 39 193 19 50 32 92 30 95 -13 13 -569 -74 -846 -133
-63 -13 -151 -31 -195 -39 -44 -9 -111 -22 -150 -30 -38 -8 -81 -13 -95 -10
-17 4 -21 3 -12 -4 9 -6 -44 -21 -160 -46 -95 -21 -204 -46 -243 -56 -38 -10
-151 -39 -250 -65 -99 -25 -241 -66 -316 -90 -75 -24 -164 -51 -198 -60 -34
-9 -132 -47 -217 -86 -86 -39 -162 -68 -170 -65 -8 3 -14 16 -14 29 0 30 53
60 215 120 180 67 526 175 630 197 22 5 67 17 100 26 33 10 74 18 91 18 17 1
38 7 46 13 8 7 35 14 60 15 25 2 44 6 43 9 -6 9 111 30 129 23 9 -4 16 -1 16
6 0 7 7 10 15 6 8 -3 15 0 16 7 0 7 4 3 9 -8 7 -17 9 -17 9 -3 1 12 6 15 18
11 12 -5 14 -3 8 7 -6 10 -3 12 12 8 11 -3 27 -1 36 4 10 5 24 5 35 -1 13 -7
23 -6 32 2 10 9 11 9 6 0 -11 -20 4 -15 22 7 20 23 128 36 136 16 2 -6 5 -2 5
9 1 17 3 17 11 5 5 -8 10 -10 10 -4 0 7 9 14 20 17 11 3 18 1 14 -4 -3 -5 0
-9 5 -9 6 0 11 4 11 9 0 5 9 7 20 4 12 -3 20 0 20 7 0 7 6 10 14 7 8 -3 20 1
26 8 7 8 16 13 20 10 5 -3 11 1 13 7 3 8 6 6 6 -4 1 -12 9 -18 27 -18 14 0 23
4 20 9 -4 5 5 8 18 7 14 -2 27 3 30 10 3 8 15 14 26 14 12 0 18 -4 15 -10 -10
-16 7 -12 27 7 14 12 21 14 26 6 6 -9 18 -9 50 -1 26 6 39 14 35 22 -4 6 1 5
10 -3 15 -12 19 -12 32 5 14 19 14 19 15 -1 1 -19 1 -19 11 -2 7 12 15 15 26
8 18 -9 53 -3 53 10 0 4 19 7 43 6 29 -1 41 2 39 11 -1 6 2 12 7 12 5 0 12 -6
15 -12 5 -10 7 -10 12 -1 4 9 18 11 45 7 32 -5 39 -4 39 10 0 19 59 23 78 4 7
-7 12 -8 12 -2 0 6 17 11 37 11 23 1 42 8 50 19 7 10 13 12 13 6 0 -7 7 -12
15 -12 8 0 15 6 15 14 0 10 7 12 22 8 21 -5 21 -6 2 -13 -12 -5 -5 -7 21 -4
22 2 51 4 65 5 23 1 23 2 5 10 -17 7 -16 9 10 10 40 1 59 17 74 63 8 23 17 35
24 30 7 -3 9 -3 5 2 -8 8 18 66 34 76 5 3 10 12 12 20 6 34 18 59 27 54 5 -3
6 1 3 9 -7 18 59 139 71 129 4 -5 5 -3 1 4 -8 14 24 82 51 109 10 10 18 22 19
28 0 16 55 122 119 234 72 125 79 136 86 142 3 3 13 19 22 36 9 18 36 60 60
95 24 35 68 100 97 144 30 44 59 83 65 87 12 9 13 9 -47 13 -58 5 -96 24 -141
72 -68 72 -107 190 -107 328 0 74 34 403 43 411 3 3 18 -1 35 -10 32 -16 67
-62 53 -70 -4 -3 -11 -43 -15 -88 -3 -46 -10 -117 -16 -158 -21 -172 -5 -346
38 -393 27 -31 130 -19 207 23 69 38 74 43 175 165 41 50 83 99 94 111 12 11
86 89 166 173 152 160 332 325 372 340 30 11 46 5 86 -32z m-1772 -169 c30 -4
89 -56 98 -86 5 -18 7 -35 3 -38 -3 -3 -29 7 -58 22 -71 36 -153 42 -266 20
-192 -38 -292 -134 -269 -258 6 -35 79 -131 196 -263 174 -194 289 -388 331
-555 25 -99 22 -231 -6 -315 -22 -62 -77 -149 -124 -195 -99 -96 -288 -185
-512 -241 -109 -27 -324 -34 -421 -14 -192 41 -319 181 -305 340 3 33 10 61
16 63 6 2 11 10 11 17 0 8 13 36 28 62 16 26 31 56 35 65 3 9 16 22 29 29 22
12 22 11 8 -6 -14 -17 -14 -17 6 -7 12 6 25 8 29 4 5 -4 6 -2 3 3 -7 12 17 37
26 28 3 -4 6 0 6 7 0 7 3 11 6 8 3 -4 21 4 41 18 60 40 138 73 225 94 93 22
118 24 118 10 0 -5 -7 -10 -15 -10 -22 0 -173 -54 -225 -80 -72 -36 -162 -104
-198 -149 -71 -89 -106 -204 -83 -274 14 -41 87 -112 136 -133 18 -7 36 -18
39 -23 3 -5 23 -12 43 -16 21 -5 43 -10 48 -11 44 -13 85 -21 89 -16 3 3 34 4
68 3 68 -2 248 31 301 54 18 8 64 26 102 41 39 15 84 37 102 50 17 13 36 24
41 24 6 0 13 7 16 16 3 8 10 13 15 10 4 -3 16 3 26 14 10 11 22 20 28 20 15 0
117 102 145 145 79 122 96 209 68 337 -33 147 -107 268 -311 508 -72 85 -146
177 -165 204 -91 134 -94 263 -10 359 40 45 141 104 159 92 5 -3 11 -1 13 5 2
6 22 12 46 14 23 2 46 7 50 11 5 6 162 1 218 -7z m-1192 -137 c147 -37 252
-118 314 -243 78 -156 39 -374 -99 -558 -77 -102 -236 -253 -378 -358 -123
-92 -227 -162 -239 -162 -4 0 -23 -10 -42 -23 -52 -34 -193 -93 -295 -123 -78
-24 -109 -27 -235 -28 -135 -1 -149 1 -195 24 -27 13 -51 28 -53 32 -2 4 -9 8
-16 8 -17 0 -60 47 -80 88 -22 43 -34 138 -17 127 9 -5 12 -1 11 11 -4 31 -1
45 8 40 4 -2 6 -33 5 -68 -4 -78 15 -124 64 -158 19 -13 40 -25 47 -26 6 -1
34 -9 61 -19 63 -21 186 -21 260 0 30 9 59 14 64 11 5 -4 25 3 45 15 19 11 40
18 46 14 5 -3 12 0 15 7 3 7 19 14 37 15 17 1 38 9 48 18 9 8 22 15 29 15 18
0 151 72 151 82 0 4 7 8 16 8 28 0 237 143 297 203 15 15 32 27 37 27 6 0 13
7 16 15 4 8 12 15 18 15 18 0 198 201 257 286 79 116 116 272 89 382 -46 195
-286 307 -600 281 -218 -18 -531 -143 -576 -231 l-16 -31 -20 21 c-19 18 -20
24 -8 52 40 95 391 235 615 244 53 2 99 7 103 10 10 10 139 -4 216 -23z m-585
-432 c18 -19 18 -24 5 -81 -8 -34 -28 -92 -44 -130 -50 -120 -196 -358 -219
-358 -3 0 14 44 40 98 68 142 157 370 170 435 7 31 15 57 20 57 5 0 17 -9 28
-21z m3526 -1649 c3 -5 2 -10 -4 -10 -5 0 -13 5 -16 10 -3 6 -2 10 4 10 5 0
13 -4 16 -10z"/>
<path d="M3558 2593 c6 -2 18 -2 25 0 6 3 1 5 -13 5 -14 0 -19 -2 -12 -5z"/>
<path d="M2498 2393 c6 -2 18 -2 25 0 6 3 1 5 -13 5 -14 0 -19 -2 -12 -5z"/>
</g>
</svg>
